<?xml version="1.0" encoding="UTF-8"?> <!-- Generator: Adobe Illustrator 24.3.0, SVG Export Plug-In . SVG Version: 6.00 Build 0) --> <svg xmlns="http://www.w3.org/2000/svg" xmlns:xlink="http://www.w3.org/1999/xlink" version="1.1" id="Layer_1" x="0px" y="0px" viewBox="0 0 900 900" style="enable-background:new 0 0 900 900;" xml:space="preserve"> <style type="text/css"> .st0{fill:#413D4D;} </style> <g id="Page-1"> <g id="logo-rijksmuseum" transform="translate(0 1)"> <path id="Fill-1" class="st0" d="M496.2,485.5h48.4v117.1c29.9-38.3,59.9-76.2,89.4-114.5c0.9-1.3,1.8-3.1,4-2.6h59 c-0.4,1.3-0.9,2.6-1.8,3.5c-35.7,44.5-71.3,88.9-107.4,133.4c37,48,74,96.4,111.4,144.4c0.9,1.3,1.3,2.2,1.8,4h-60.8 c-32.1-42.3-63.8-85-95.5-127.2c-0.4,42.3,0,84.5,0,127.2h-48.4V485.5z M382.6,485.5H431v176.6c0,12.8,0.4,26-1.8,38.3 c-3.1,20.7-12.8,40.5-29.1,53.7c-16.7,14.5-39.6,20.3-61.6,21.6h-20.3c-25.1-1.3-50.2-7.9-72.2-20.3v-49.8c2.2,0.4,4,1.3,6.2,2.2 c26.4,13.6,55.9,22.5,85.9,19.4c11.9-1.3,24.2-5.3,32.6-14.1c8.8-9.2,12.3-22.5,12.3-34.8C382.6,614.1,382.6,549.8,382.6,485.5z M246.1,485.5h48.4V663h-48C246.1,604,246.1,544.5,246.1,485.5z M48,530.9v89.4h36.1c14.1-0.9,29.5-2.6,40.9-11.9 c9.7-7.5,13.2-20.3,13.2-32.1c0.4-11.4-2.6-24.2-11.4-32.1c-9.2-8.4-21.6-11.4-33.5-12.3C77.9,530.4,62.9,530.9,48,530.9L48,530.9 z M-0.5,485.5h79.3c19.8-0.4,40.5,1.3,59.4,8.4c17.6,6.2,33,18.9,40.9,36.1c9.7,21.1,10.6,45.4,7,68.2 c-3.5,21.1-16.3,40.5-35.2,51.1c16.7,40.5,34.3,81,50.6,122h-52.4c-14.1-35.7-28.2-71.8-42.3-107.9c-19.4,3.1-39.2,1.3-58.6,1.8 v106.1H-0.5V485.5z M812.8,480.7h18.9c20.3,1.8,40.9,6.2,58.6,16.7v49.3c-4.8-2.2-9.7-5.3-14.5-7.5c-21.1-9.7-44.9-14.5-68.2-11.4 c-10.6,1.3-21.1,4.8-28.6,12.3c-8.4,8.4-10.6,21.6-7,32.6c3.1,9.7,11.9,16.3,20.7,20.3c25.1,11.9,53.3,16.3,76.2,32.6 c13.6,9.2,23.8,23.3,27.3,39.2c5.3,22.9,3.1,48.9-10.1,69.1c-10.6,16.7-27.7,28.2-45.8,34.3c-11.4,4-23.3,5.7-35.2,7h-18.9 c-23.3-1.8-46.7-7-66.9-19.4v-49.8c6.6,3.1,12.8,7,19.4,9.7c20.7,8.8,43.1,14.5,65.6,12.3c12.3-1.3,25.1-4.4,33.9-13.2 c10.1-9.2,12.8-25.1,7.5-37.4c-4-9.2-13.2-15-22-18.9c-12.8-5.7-26-9.7-39.2-14.5c-18.5-6.6-37.9-15.4-50.2-31.7 c-12.8-15.9-15.9-37.4-14.1-57.2c1.8-18.5,9.7-36.1,23.3-48.9C762.1,489.9,788.1,482.5,812.8,480.7z"></path> </g> </g> </svg> 