<svg version="1.1" id="Layer_1" xmlns="http://www.w3.org/2000/svg" xmlns:xlink="http://www.w3.org/1999/xlink" x="0px" y="0px"
	 width="100%" viewBox="0 0 225 225" enable-background="new 0 0 225 225" xml:space="preserve">
<path fill="#FFFFFF" opacity="1.000000" stroke="none" 
	d="
M121.000000,226.000000 
	C117.638710,226.000000 114.277428,226.000000 110.495766,225.643219 
	C111.110374,223.545074 112.145363,221.803680 113.297745,219.864777 
	C109.341743,219.864777 106.054230,219.864777 102.996368,219.864777 
	C102.051971,221.117859 100.987930,222.529694 99.923889,223.941528 
	C98.793877,222.844360 97.831985,221.423416 96.493233,220.728394 
	C94.633446,219.762833 92.472069,218.747406 90.473434,218.810989 
	C86.275543,218.944519 82.022758,220.111633 80.461166,214.344910 
	C80.218689,213.449463 78.877342,212.394485 77.904259,212.227249 
	C70.956718,211.033325 63.972904,210.050537 57.000313,209.000305 
	C57.000000,209.000000 56.999237,208.999390 56.999367,208.597641 
	C56.483845,202.372192 53.768173,200.683014 45.417805,201.099060 
	C45.705727,200.627670 45.916790,200.211288 46.192146,199.842957 
	C47.829601,197.652603 49.420052,195.478714 45.811558,193.596390 
	C45.041817,194.887222 44.383602,195.991028 43.262428,197.871201 
	C39.847363,191.774582 39.313431,184.355728 31.108118,184.118958 
	C32.021889,181.961380 32.622433,180.543396 33.082504,179.457077 
	C30.123455,178.923828 27.561918,178.462219 25.000191,178.000305 
	C25.000000,178.000000 24.999619,177.999390 24.999901,177.590118 
	C25.260166,174.434204 24.568413,172.723831 21.542126,171.543976 
	C17.436583,169.943359 15.706977,167.059174 16.228035,161.800522 
	C16.729048,156.744186 17.822317,150.474747 11.550780,146.716934 
	C10.016011,145.797318 9.076523,142.604904 9.173089,140.518051 
	C9.353759,136.613708 8.258904,134.038177 4.459295,132.094101 
	C5.971342,131.912170 7.483388,131.730240 10.124504,131.412460 
	C8.574543,129.590088 7.464464,128.261612 6.327461,126.956581 
	C5.618423,126.142769 4.132623,125.229599 4.249611,124.590668 
	C5.619184,117.110771 0.484005,108.637344 7.631940,101.993408 
	C8.177533,101.486282 7.981627,100.090027 7.985686,99.106468 
	C8.012436,92.626129 7.999496,86.145622 7.999496,79.856331 
	C16.189903,77.105560 17.095028,75.285660 15.435062,65.350647 
	C25.709341,62.779453 24.470467,54.218201 24.361656,46.731110 
	C27.020082,47.414017 29.175596,47.967728 30.632744,48.342045 
	C33.210613,43.994102 35.381104,40.012016 37.888844,36.255051 
	C38.954834,34.658039 40.644882,32.513935 42.194382,32.388714 
	C46.403065,32.048588 47.743114,29.015995 48.711361,26.109682 
	C49.833870,22.740337 52.409016,22.154720 54.490288,23.255713 
	C58.766655,25.517908 60.484905,22.124249 62.765278,20.237843 
	C64.225571,19.029844 65.039337,17.040310 66.104362,15.458445 
	C70.906334,16.792152 77.541908,15.430676 78.750961,12.062303 
	C80.276886,7.811158 83.074417,7.679732 86.496147,8.014298 
	C88.788460,8.238433 91.064720,8.626951 93.357063,8.850650 
	C93.713432,8.885427 94.117508,8.431506 94.626343,8.127906 
	C93.759651,7.011894 93.009048,6.045361 92.743622,5.703570 
	C94.055244,3.809036 95.027626,2.404518 96.000000,1.000000 
	C102.687645,1.000000 109.375290,1.000000 116.530869,1.378099 
	C117.241669,3.679882 117.484543,5.603567 117.697174,7.287700 
	C124.839203,7.848195 131.960709,8.414952 139.084671,8.948501 
	C139.561340,8.984200 140.115616,8.575431 140.533432,8.702746 
	C142.391327,9.268845 144.926758,9.404480 145.921310,10.694698 
	C149.844360,15.783945 154.146240,18.209188 160.894165,16.454714 
	C163.259003,15.839853 168.097977,14.119365 168.880280,19.308521 
	C169.357117,22.471289 170.932800,22.966257 173.582733,23.079914 
	C175.029282,23.141956 176.853928,23.621302 177.776505,24.601215 
	C179.338501,26.260279 179.883728,29.109709 181.641174,30.301249 
	C184.904694,32.513920 187.408310,34.555721 186.218262,38.986008 
	C186.154099,39.224846 188.662521,40.771549 189.183548,40.445850 
	C191.671219,38.890781 193.885971,36.899124 196.060272,35.171963 
	C194.856964,33.644463 192.435410,31.943939 192.568970,30.475895 
	C192.932358,26.481945 190.612106,25.621876 187.777496,24.811323 
	C185.963364,24.292572 184.138794,23.810310 181.853348,23.184137 
	C183.349609,21.444532 184.461761,20.151516 185.996613,18.367043 
	C179.807877,17.978251 173.913925,17.704905 174.733246,10.064368 
	C169.851532,9.639147 165.317856,9.244241 160.441498,8.819487 
	C162.235245,0.646106 155.968857,6.029382 153.494553,4.477617 
	C154.011902,3.282531 154.505951,2.141266 155.000000,1.000000 
	C178.593521,1.000000 202.187027,1.000000 226.000000,1.000000 
	C226.000000,24.353769 226.000000,47.708225 225.650894,71.474716 
	C223.685104,69.705475 222.068420,67.524200 220.548630,65.473663 
	C218.107269,65.473663 215.826981,65.473663 213.676483,65.473663 
	C214.866867,64.074364 216.698318,62.908993 216.720108,61.710728 
	C216.785538,58.113014 216.239517,54.487873 215.688431,50.910965 
	C215.594177,50.299183 214.301270,49.872074 213.562088,49.359653 
	C213.208176,50.094158 212.911179,50.863514 212.487488,51.555290 
	C211.786041,52.700577 211.002991,53.795887 210.254303,54.912251 
	C208.714828,51.351734 208.401642,48.273144 208.105850,45.192883 
	C207.991150,43.998482 207.915802,42.800301 207.822540,41.603844 
	C206.421036,41.883110 204.932068,41.955894 203.643539,42.501808 
	C202.441757,43.010960 201.453079,44.023060 200.039856,45.055367 
	C200.039856,41.529015 200.039856,39.000427 200.039856,35.555206 
	C197.519592,38.741684 195.719482,40.789658 194.209244,43.032776 
	C193.551529,44.009678 192.940704,45.618855 193.319031,46.513630 
	C193.657288,47.313568 195.347076,47.680962 196.507614,47.963959 
	C198.611740,48.477047 200.765778,48.785469 202.385239,49.084473 
	C203.408783,51.994995 197.787689,54.569740 203.412231,56.010120 
	C209.607819,57.596725 211.733261,61.168495 210.990814,67.528908 
	C210.750412,69.588493 211.554367,71.749222 211.629852,73.872597 
	C211.697983,75.788284 212.002792,78.088806 211.091934,79.504791 
	C210.505859,80.415886 207.915375,80.093430 206.215546,80.221016 
	C202.284363,80.516106 198.345490,80.709984 194.415237,81.015839 
	C188.867828,81.447548 183.307388,82.442734 177.786957,82.243309 
	C173.838135,82.100670 172.151154,83.193260 171.584381,87.179886 
	C170.331161,87.515404 169.493011,87.636299 168.738083,87.370560 
	C168.671829,86.568748 168.567383,86.125763 168.340607,85.758286 
	C168.285156,85.668457 167.828918,85.825958 167.556961,85.869751 
	C167.917450,86.466805 168.277939,87.063850 168.373611,87.833405 
	C167.898087,88.005608 167.687378,88.005295 167.154175,87.750366 
	C165.886627,88.265511 164.941528,89.035255 163.869781,89.960747 
	C163.743118,90.116493 163.342941,90.149231 162.877686,90.106979 
	C158.923431,89.721298 155.434464,89.377876 151.966736,89.030106 
	C151.988007,89.025749 151.964798,89.062218 151.933472,88.723541 
	C150.890839,86.450836 149.879547,84.516815 148.646286,82.158318 
	C147.213318,81.987068 145.267609,81.754547 142.786652,81.458069 
	C143.688019,83.513794 144.278427,84.860321 145.598312,87.870537 
	C137.427948,83.915001 134.912048,91.918541 129.299408,92.930267 
	C130.173660,97.921890 133.803955,94.054581 135.820038,95.344788 
	C134.718781,97.124977 133.700623,98.559219 132.293365,99.994858 
	C128.473068,100.285446 125.758186,101.109787 127.736115,105.595451 
	C127.671127,105.702332 127.489433,105.874298 127.147385,105.630623 
	C126.263214,105.257126 125.721092,105.127304 125.098389,104.536209 
	C125.014412,98.715836 125.011017,93.356728 125.363403,87.958046 
	C126.437233,87.124260 127.155266,86.330048 127.873299,85.535835 
	C127.010315,84.915649 126.216850,84.133827 125.263466,83.723839 
	C124.425133,83.363335 122.708656,83.652023 122.576462,83.255310 
	C121.066566,78.724167 119.191307,81.907509 117.227859,82.637512 
	C117.718727,84.525795 118.132263,86.116608 118.535858,87.692261 
	C118.525909,87.677116 118.546577,87.696274 118.113472,87.527512 
	C113.960960,85.197411 113.989777,87.689827 113.992912,90.283417 
	C114.009819,104.253540 113.940758,118.224281 114.082184,132.192993 
	C114.098267,133.782196 115.245026,135.359955 115.950027,137.296204 
	C116.688797,138.720154 117.345055,139.790924 118.041283,141.196289 
	C119.134171,145.481201 122.346863,143.455612 124.615120,143.735504 
	C125.972992,143.903061 128.455704,143.484955 128.682495,142.772736 
	C129.541473,140.075211 127.831978,138.923004 125.113228,138.603363 
	C125.075592,137.140381 125.121338,136.071335 125.541023,134.989563 
	C131.779373,131.982056 132.291275,132.110992 133.388763,137.652740 
	C134.933578,136.220810 136.156738,135.087051 137.627533,134.118576 
	C137.919998,134.477249 137.964828,134.670609 138.005188,135.296936 
	C137.849197,138.478577 137.697708,141.227264 137.498764,144.836761 
	C144.078186,142.194794 150.906494,146.737457 156.116226,143.807907 
	C161.013458,143.978226 165.006775,144.183792 168.997147,144.136902 
	C169.338699,144.132874 169.660492,142.450516 170.341888,141.448593 
	C171.413055,141.410767 172.133804,141.472168 172.997116,141.894333 
	C175.424164,142.841705 177.931641,144.308792 179.938843,143.800461 
	C182.679932,143.106293 186.217422,141.755508 184.914093,137.149155 
	C185.560623,136.573303 186.079315,136.204010 186.951965,135.976532 
	C190.456284,137.264877 192.734665,137.581253 192.407547,132.809631 
	C192.171570,129.367264 195.231201,125.370941 190.140564,122.642197 
	C189.917267,121.558517 189.803391,120.828415 190.031219,120.047218 
	C190.555908,118.555305 190.738892,117.114494 190.921875,115.673676 
	C190.759384,115.159538 190.596893,114.645401 190.434418,114.131264 
	C202.289612,113.754173 214.144806,113.377090 226.000000,113.000000 
	C226.000000,115.700012 226.000000,118.400032 225.630707,121.554398 
	C222.687088,123.070740 220.112762,124.132721 217.512970,125.205200 
	C217.512970,130.581345 217.970581,136.356339 217.361786,142.016602 
	C216.910568,146.211899 217.316772,151.014206 212.558487,153.889008 
	C209.371201,155.814682 208.844589,158.799210 211.779907,161.780182 
	C212.536407,162.548447 213.086426,163.520065 214.179718,165.008942 
	C210.239716,166.498840 206.707260,167.643188 203.375198,169.212875 
	C202.392746,169.675690 201.733200,171.266174 201.361252,172.473999 
	C200.864166,174.088211 200.800812,175.834625 200.533752,177.521500 
	C200.337875,178.758911 200.113983,179.991867 199.878830,181.365509 
	C194.102264,181.775146 189.227875,186.049713 184.393967,192.560944 
	C180.546799,197.743057 174.715286,201.524506 175.000916,208.999084 
	C175.000000,209.000000 174.998535,209.001831 174.706955,209.109589 
	C173.088013,208.555557 171.760666,207.893753 170.469543,207.250000 
	C164.674805,209.643616 158.981354,212.450058 152.999390,214.346298 
	C146.179962,216.507996 139.416031,220.065277 131.802948,217.205994 
	C130.710327,216.795624 128.731674,216.910568 128.027405,217.629318 
	C125.485184,220.223831 123.312325,223.180237 121.000000,226.000000 
M169.892365,201.720200 
	C169.806061,201.670822 169.719742,201.621460 169.633438,201.572083 
	C169.755020,201.715179 169.876587,201.858292 170.071930,202.685562 
	C170.679016,203.326889 171.286102,203.968216 171.893204,204.609543 
	C172.197433,204.146820 172.501663,203.684082 172.805893,203.221359 
	C171.871048,202.813629 170.936218,202.405899 169.892365,201.720200 
M103.929398,87.299339 
	C101.593285,80.697540 95.187111,83.787247 90.388885,81.026237 
	C90.388885,84.366226 89.309563,88.003143 90.611801,89.368332 
	C93.390511,92.281387 92.961990,95.326775 92.987846,98.540474 
	C93.032021,104.030907 92.881317,109.526360 93.084808,115.009605 
	C93.134941,116.360245 94.234604,117.671936 95.007683,119.825089 
	C94.947105,121.215927 94.886528,122.606773 94.096878,124.019341 
	C91.931961,125.640305 89.239464,127.081223 91.416969,130.952591 
	C89.944572,131.354828 88.472183,131.757050 86.905746,131.439072 
	C84.928787,129.789658 82.737907,126.811203 81.162064,132.313416 
	C80.442230,132.136505 79.722404,131.959595 78.874512,130.997665 
	C78.583008,127.665260 78.291504,124.332848 78.381844,120.694183 
	C78.619682,120.470566 78.850357,120.239784 79.803963,120.088387 
	C83.886604,121.840424 85.886650,120.132080 85.958992,116.052078 
	C86.091095,108.602097 86.056328,101.146996 85.929695,93.696777 
	C85.909416,92.503380 85.264595,91.169205 84.538559,90.168510 
	C82.608780,87.508720 80.476860,84.995590 77.746277,81.572983 
	C76.199661,81.453552 73.250755,80.917244 70.364410,81.151573 
	C69.173920,81.248222 68.117828,83.000267 67.000000,84.000000 
	C67.000000,84.000000 66.999390,84.000610 66.261856,84.143669 
	C64.127335,88.364891 64.438385,88.801056 69.861374,89.867119 
	C69.821281,97.576668 69.781189,105.286224 69.054375,113.016335 
	C68.412910,113.561333 67.771439,114.106323 67.129967,114.651314 
	C68.002281,115.435600 68.874596,116.219887 69.899025,117.523621 
	C69.965843,117.691223 70.032661,117.858818 70.015007,118.546188 
	C70.092140,118.703873 70.169273,118.861557 70.043449,118.794853 
	C70.043449,118.794853 69.777397,118.938919 69.010307,118.974022 
	C66.719475,118.391792 64.428635,117.809563 61.692574,117.114182 
	C63.052860,114.451149 64.661209,112.667603 64.795219,110.779427 
	C65.169586,105.504845 65.002007,100.185394 64.881302,94.887459 
	C64.857018,93.821304 64.158089,91.883995 63.665833,91.849770 
	C57.576244,91.426414 55.409367,85.770859 51.231304,82.864571 
	C50.474461,82.338112 49.378521,81.994270 48.467484,82.047905 
	C44.823002,82.262444 41.189072,82.933182 37.552433,82.924675 
	C34.059490,82.916519 32.658978,84.314445 32.127373,87.829559 
	C30.082130,87.905304 28.036888,87.981049 25.374168,87.976288 
	C24.992319,88.138947 24.610472,88.301605 23.987141,87.848770 
	C23.259123,85.929482 22.531107,84.010193 21.803089,82.090912 
	C21.255259,82.203003 20.707426,82.315102 20.159595,82.427193 
	C19.440004,85.816483 18.149178,89.197350 18.099041,92.596512 
	C17.873871,107.862587 17.940819,123.134491 18.097338,138.402298 
	C18.112587,139.889893 19.333067,142.488800 20.226360,142.593674 
	C21.759544,142.773682 23.476040,141.392380 25.406076,140.435822 
	C25.674757,140.461578 25.895344,140.370682 26.668182,140.416687 
	C27.085361,140.331696 27.502542,140.246719 28.090801,140.428406 
	C28.090801,140.428406 28.100855,140.745071 28.131130,141.484665 
	C31.687082,145.843628 36.066116,143.715469 40.755417,143.308212 
	C39.191723,138.935318 41.108089,136.475464 44.734394,135.080414 
	C46.108509,134.551788 47.604614,134.340271 49.550671,134.401215 
	C49.764278,135.242020 49.977882,136.082825 49.589146,137.366379 
	C49.796467,139.367111 50.003784,141.367844 50.211105,143.368591 
	C50.765869,143.274628 51.320633,143.180679 51.875397,143.086731 
	C51.966919,142.278854 52.058437,141.470993 52.882179,140.555786 
	C54.033337,140.827499 55.184494,141.099213 56.279037,141.831772 
	C56.343582,141.677261 56.408127,141.522751 57.539585,140.733337 
	C57.945705,140.812943 58.351826,140.892548 58.396645,141.709625 
	C61.355446,146.065033 65.562370,143.023056 69.620224,144.606506 
	C68.506935,142.673843 67.972244,141.745621 66.810127,139.728180 
	C73.459923,143.479935 79.282402,145.028961 85.504364,143.895447 
	C86.786896,143.661804 87.842560,142.182892 89.650726,141.076126 
	C90.100174,141.086990 90.549622,141.097870 91.013313,141.860229 
	C91.239700,144.434372 92.443718,145.280609 95.041489,144.537033 
	C97.196716,143.920120 99.486809,143.787750 101.700699,143.356308 
	C102.684837,143.164505 103.628471,142.764877 104.590485,142.459579 
	C103.956696,141.650696 103.459435,140.640091 102.649284,140.091782 
	C101.895386,139.581543 100.808235,139.563705 99.867798,139.329102 
	C100.339188,138.754562 100.810577,138.180023 101.281967,137.605484 
	C102.284737,137.605484 103.287506,137.605484 104.873978,137.605484 
	C104.101555,135.436859 103.482430,133.698624 102.896599,131.156860 
	C103.227348,128.769104 103.558098,126.381340 104.045471,123.068619 
	C103.994537,114.381233 103.943611,105.693840 104.070671,96.130226 
	C104.015251,93.749474 103.959831,91.368729 104.067146,88.498276 
	C104.046288,88.327530 104.025436,88.156784 103.929398,87.299339 
M102.874138,5.300995 
	C102.868797,8.508741 102.946922,8.540715 107.416382,6.393677 
	C105.713394,5.812912 104.651527,5.450789 102.874138,5.300995 
M7.039241,107.877235 
	C7.211198,109.078156 7.383155,110.279076 7.555112,111.479996 
	C8.194614,111.233261 8.834117,110.986519 9.473619,110.739777 
	C8.708856,109.543297 7.944092,108.346809 7.039241,107.877235 
M162.430893,82.702759 
	C162.704147,82.988991 162.977417,83.275223 163.250671,83.561447 
	C163.369125,83.448090 163.596832,83.242439 163.590286,83.234680 
	C163.335312,82.932816 163.058945,82.649002 162.430893,82.702759 
M195.430878,178.703079 
	C195.704025,178.989212 195.977173,179.275345 196.250305,179.561478 
	C196.368713,179.448181 196.596329,179.242645 196.589783,179.234894 
	C196.334885,178.933105 196.058624,178.649384 195.430878,178.703079 
M40.658054,40.373608 
	C40.583050,40.118427 40.508045,39.863247 40.433037,39.608067 
	C40.149727,39.885017 39.866413,40.161968 39.583099,40.438911 
	C39.836430,40.520164 40.089756,40.601418 40.658054,40.373608 
M140.044495,83.685936 
	C139.900665,83.923920 139.756851,84.161896 139.613022,84.399879 
	C139.858383,84.487701 140.103745,84.575523 140.349106,84.663345 
	C140.390244,84.310150 140.431381,83.956955 140.044495,83.685936 
M140.814865,81.738991 
	C140.972961,81.624207 141.131073,81.509422 141.289169,81.394638 
	C141.069168,81.417877 140.849182,81.441116 140.814865,81.738991 
M153.482742,210.589584 
	C153.482742,210.589584 153.415039,210.476852 153.482742,210.589584 
M21.410288,169.482651 
	C21.410288,169.482651 21.523361,169.414734 21.410288,169.482651 
M131.410690,90.482742 
	C131.410690,90.482742 131.523148,90.415276 131.410690,90.482742 
M199.482468,33.589172 
	C199.482468,33.589172 199.415024,33.476849 199.482468,33.589172 
M91.410912,121.483047 
	C91.410912,121.483047 91.523178,121.415695 91.410912,121.483047 
M130.411011,136.482758 
	C130.411011,136.482758 130.523117,136.415588 130.411011,136.482758 
M115.517166,143.411301 
	C115.517166,143.411301 115.584099,143.523132 115.517166,143.411301 
z"/>
<path fill="#FDFDFD" opacity="1.000000" stroke="none" 
	d="
M95.531464,1.000000 
	C95.027626,2.404518 94.055244,3.809036 92.743622,5.703570 
	C93.009048,6.045361 93.759651,7.011894 94.626343,8.127906 
	C94.117508,8.431506 93.713432,8.885427 93.357063,8.850650 
	C91.064720,8.626951 88.788460,8.238433 86.496147,8.014298 
	C83.074417,7.679732 80.276886,7.811158 78.750961,12.062303 
	C77.541908,15.430676 70.906334,16.792152 66.104362,15.458445 
	C65.039337,17.040310 64.225571,19.029844 62.765278,20.237843 
	C60.484905,22.124249 58.766655,25.517908 54.490288,23.255713 
	C52.409016,22.154720 49.833870,22.740337 48.711361,26.109682 
	C47.743114,29.015995 46.403065,32.048588 42.194382,32.388714 
	C40.644882,32.513935 38.954834,34.658039 37.888844,36.255051 
	C35.381104,40.012016 33.210613,43.994102 30.632744,48.342045 
	C29.175596,47.967728 27.020082,47.414017 24.361656,46.731110 
	C24.470467,54.218201 25.709341,62.779453 15.435062,65.350647 
	C17.095028,75.285660 16.189903,77.105560 7.999496,79.856331 
	C7.999496,86.145622 8.012436,92.626129 7.985686,99.106468 
	C7.981627,100.090027 8.177533,101.486282 7.631940,101.993408 
	C0.484005,108.637344 5.619184,117.110771 4.249611,124.590668 
	C4.132623,125.229599 5.618423,126.142769 6.327461,126.956581 
	C7.464464,128.261612 8.574543,129.590088 10.124504,131.412460 
	C7.483388,131.730240 5.971342,131.912170 4.459295,132.094101 
	C8.258904,134.038177 9.353759,136.613708 9.173089,140.518051 
	C9.076523,142.604904 10.016011,145.797318 11.550780,146.716934 
	C17.822317,150.474747 16.729048,156.744186 16.228035,161.800522 
	C15.706977,167.059174 17.436583,169.943359 21.542126,171.543976 
	C24.568413,172.723831 25.260166,174.434204 24.715399,177.625351 
	C24.108007,178.375229 23.785400,178.680618 23.462791,178.985992 
	C23.672588,179.167984 23.882387,179.349976 24.092186,179.531967 
	C24.394913,179.021515 24.697643,178.511063 25.000378,178.000610 
	C27.561918,178.462219 30.123455,178.923828 33.082504,179.457077 
	C32.622433,180.543396 32.021889,181.961380 31.108118,184.118958 
	C39.313431,184.355728 39.847363,191.774582 43.262428,197.871201 
	C44.383602,195.991028 45.041817,194.887222 45.811558,193.596390 
	C49.420052,195.478714 47.829601,197.652603 46.192146,199.842957 
	C45.916790,200.211288 45.705727,200.627670 45.417805,201.099060 
	C53.768173,200.683014 56.483845,202.372192 56.861118,208.651733 
	C56.815369,209.071915 56.907997,209.036255 57.000622,209.000610 
	C63.972904,210.050537 70.956718,211.033325 77.904259,212.227249 
	C78.877342,212.394485 80.218689,213.449463 80.461166,214.344910 
	C82.022758,220.111633 86.275543,218.944519 90.473434,218.810989 
	C92.472069,218.747406 94.633446,219.762833 96.493233,220.728394 
	C97.831985,221.423416 98.793877,222.844360 99.923889,223.941528 
	C100.987930,222.529694 102.051971,221.117859 102.996368,219.864777 
	C106.054230,219.864777 109.341743,219.864777 113.297745,219.864777 
	C112.145363,221.803680 111.110374,223.545074 110.037697,225.643219 
	C96.979103,226.000000 83.958214,226.000000 70.419662,225.661224 
	C68.352371,224.374451 66.802734,223.426453 65.009743,222.329605 
	C67.249390,214.467529 58.005314,217.595963 56.126579,212.565308 
	C55.255196,214.469849 54.763851,215.543777 53.881851,217.471542 
	C51.165642,211.508377 47.467739,207.845047 41.447926,207.797195 
	C41.695408,201.316696 41.695408,201.316696 35.024673,200.720673 
	C33.359573,196.773575 35.034245,190.107971 27.139788,191.356140 
	C26.742174,191.419022 25.794678,190.531891 25.775343,190.059586 
	C25.620428,186.275574 22.440922,185.010101 20.264290,182.791977 
	C18.792679,181.292282 18.273525,178.857971 17.045547,176.238434 
	C17.645922,176.238434 17.155838,176.302979 16.688354,176.227524 
	C14.369721,175.853271 12.057050,175.442093 9.742277,175.043915 
	C10.210849,173.311005 10.670753,171.575668 11.151423,169.846115 
	C11.416427,168.892593 11.716307,167.948746 12.138865,166.946198 
	C12.184724,166.927689 12.092181,166.963531 11.624313,166.952469 
	C9.579885,164.425613 7.910783,161.945648 6.204771,159.410843 
	C9.134161,153.051224 7.880033,150.737747 1.000000,150.000000 
	C1.000000,123.645775 1.000000,97.291542 1.351958,70.432648 
	C4.855822,68.015160 8.007728,66.102356 11.269712,64.122742 
	C11.195481,63.280018 11.095219,62.141766 10.997519,61.001720 
	C11.000083,60.999928 11.005249,60.994637 11.330366,60.948559 
	C12.691447,58.922287 13.727411,56.942089 14.981254,54.545433 
	C12.940971,54.545433 11.189158,54.545433 9.155040,54.545433 
	C9.716069,52.507923 10.172435,50.850525 10.417518,49.960449 
	C14.089526,49.214634 17.036093,48.616158 20.002157,48.255543 
	C20.141907,48.765350 20.262159,49.037300 20.382412,49.309250 
	C20.504168,49.221119 20.737360,49.064087 20.731609,49.054790 
	C20.506731,48.691074 20.260080,48.340824 20.009941,47.561642 
	C19.999744,45.425060 19.995888,43.715641 19.996004,42.003113 
	C19.999979,42.000000 20.006145,41.992050 20.392799,41.987034 
	C22.671394,41.502472 24.563334,41.022930 26.540392,40.521812 
	C25.556604,37.702553 22.837700,34.134064 27.579399,33.324905 
	C30.747345,32.784306 31.849443,31.131882 33.435085,29.095793 
	C34.332802,27.943054 36.148209,26.498232 37.269417,26.705359 
	C41.503647,27.487570 42.258083,25.416294 41.994049,22.004608 
	C41.999928,21.999981 42.009102,21.988214 42.310574,21.843588 
	C46.665638,18.479488 50.855961,15.356364 51.433784,9.434540 
	C52.160500,11.844575 52.887215,14.254610 53.613926,16.664644 
	C54.129932,16.591131 54.645935,16.517616 55.161938,16.444101 
	C54.819515,14.229434 54.477093,12.014766 54.119499,9.701965 
	C55.877708,9.548807 57.334076,9.140652 58.691837,9.355536 
	C63.053955,10.045901 67.153816,10.680022 68.889076,4.994901 
	C69.159294,4.109560 71.101097,3.781945 72.201874,3.088414 
	C73.183517,2.469947 74.070976,1.701988 75.000000,0.999999 
	C81.687645,1.000000 88.375290,1.000000 95.531464,1.000000 
M58.483177,211.588394 
	C58.483177,211.588394 58.417122,211.477448 58.483177,211.588394 
z"/>
<path fill="#FFFFFF" opacity="1.000000" stroke="none" 
	d="
M12.000463,167.000534 
	C11.716307,167.948746 11.416427,168.892593 11.151423,169.846115 
	C10.670753,171.575668 10.210849,173.311005 9.742277,175.043915 
	C12.057050,175.442093 14.369721,175.853271 16.688354,176.227524 
	C17.155838,176.302979 17.645922,176.238434 17.045547,176.238434 
	C18.273525,178.857971 18.792679,181.292282 20.264290,182.791977 
	C22.440922,185.010101 25.620428,186.275574 25.775343,190.059586 
	C25.794678,190.531891 26.742174,191.419022 27.139788,191.356140 
	C35.034245,190.107971 33.359573,196.773575 35.024673,200.720673 
	C41.695408,201.316696 41.695408,201.316696 41.447926,207.797195 
	C47.467739,207.845047 51.165642,211.508377 53.881851,217.471542 
	C54.763851,215.543777 55.255196,214.469849 56.126579,212.565308 
	C58.005314,217.595963 67.249390,214.467529 65.009743,222.329605 
	C66.802734,223.426453 68.352371,224.374451 69.951004,225.661224 
	C47.075340,226.000000 24.150682,226.000000 1.000000,226.000000 
	C1.000000,204.646301 1.000000,183.291809 1.381267,161.458618 
	C2.910352,159.332352 4.058171,157.684753 5.698767,155.329834 
	C3.165873,155.152039 2.082937,155.076019 1.000000,155.000000 
	C1.000000,153.611115 1.000000,152.222214 1.000000,150.416656 
	C7.880033,150.737747 9.134161,153.051224 6.204771,159.410843 
	C7.910783,161.945648 9.579885,164.425613 11.624494,166.952789 
	C12.000000,167.000000 12.000463,167.000534 12.000463,167.000534 
z"/>
<path fill="#FFFFFF" opacity="1.000000" stroke="none" 
	d="
M19.992029,42.006226 
	C19.995888,43.715641 19.999744,45.425060 20.001080,47.567978 
	C19.998558,48.001484 19.982660,48.017685 19.982660,48.017685 
	C17.036093,48.616158 14.089526,49.214634 10.417518,49.960449 
	C10.172435,50.850525 9.716069,52.507923 9.155040,54.545433 
	C11.189158,54.545433 12.940971,54.545433 14.981254,54.545433 
	C13.727411,56.942089 12.691447,58.922287 11.316206,60.708351 
	C10.857927,60.239483 10.738926,59.964741 10.619926,59.689999 
	C10.496450,59.777626 10.261425,59.936375 10.265455,59.942699 
	C10.496032,60.304333 10.746469,60.653301 10.994955,61.003513 
	C11.095219,62.141766 11.195481,63.280018 11.269712,64.122742 
	C8.007728,66.102356 4.855822,68.015160 1.351958,69.963989 
	C1.000000,47.070583 1.000000,24.141169 1.000000,1.000000 
	C25.353819,1.000000 49.708252,1.000000 74.531342,0.999999 
	C74.070976,1.701988 73.183517,2.469947 72.201874,3.088414 
	C71.101097,3.781945 69.159294,4.109560 68.889076,4.994901 
	C67.153816,10.680022 63.053955,10.045901 58.691837,9.355536 
	C57.334076,9.140652 55.877708,9.548807 54.119499,9.701965 
	C54.477093,12.014766 54.819515,14.229434 55.161938,16.444101 
	C54.645935,16.517616 54.129932,16.591131 53.613926,16.664644 
	C52.887215,14.254610 52.160500,11.844575 51.433784,9.434540 
	C50.855961,15.356364 46.665638,18.479488 42.252785,21.705938 
	C41.805676,21.664751 41.717827,21.616587 41.629974,21.568420 
	C41.749374,21.715357 41.868774,21.862295 41.988174,22.009232 
	C42.258083,25.416294 41.503647,27.487570 37.269417,26.705359 
	C36.148209,26.498232 34.332802,27.943054 33.435085,29.095793 
	C31.849443,31.131882 30.747345,32.784306 27.579399,33.324905 
	C22.837700,34.134064 25.556604,37.702553 26.540392,40.521812 
	C24.563334,41.022930 22.671394,41.502472 20.336266,41.848854 
	C19.805805,41.667068 19.718536,41.618443 19.631268,41.569813 
	C19.751520,41.715282 19.871775,41.860756 19.992029,42.006226 
z"/>
<path fill="#FFFFFF" opacity="1.000000" stroke="none" 
	d="
M226.000000,161.000000 
	C226.000000,182.599701 226.000000,204.199417 226.000000,226.000000 
	C200.646133,226.000000 175.291718,226.000000 149.514389,225.629120 
	C149.717575,224.560226 150.211411,223.538284 150.992340,223.219376 
	C154.677017,221.714722 160.283661,223.121887 160.659592,216.602646 
	C160.670776,216.408768 163.057419,216.098999 164.274002,216.275116 
	C167.878799,216.796906 173.707611,212.943375 174.998535,209.001831 
	C174.998535,209.001831 175.000000,209.000000 175.401321,208.992447 
	C177.752289,208.686142 179.728180,208.019958 181.646698,208.156967 
	C187.597321,208.581909 194.000824,203.524567 193.878571,197.563522 
	C193.794296,193.454346 195.840454,192.526855 199.132492,191.990509 
	C205.349136,190.977676 208.932724,187.445145 208.509613,181.412018 
	C208.224472,177.346268 210.121964,176.697052 213.059280,175.954681 
	C214.232956,175.658035 215.229950,174.662308 216.446625,173.897263 
	C214.150589,172.650757 212.745117,171.887741 211.339645,171.124710 
	C212.672791,170.369186 214.005920,169.613663 215.856522,168.564865 
	C216.069656,166.383469 216.353119,163.482178 216.752609,159.393341 
	C219.871979,159.935318 222.935989,160.467667 226.000000,161.000000 
M172.517349,216.411087 
	C172.517349,216.411087 172.584518,216.523148 172.517349,216.411087 
M175.482727,215.589050 
	C175.482727,215.589050 175.415634,215.476944 175.482727,215.589050 
M158.482910,223.589294 
	C158.482910,223.589294 158.415283,223.476776 158.482910,223.589294 
z"/>
<path fill="#FDFDFD" opacity="1.000000" stroke="none" 
	d="
M171.999420,86.965271 
	C172.151154,83.193260 173.838135,82.100670 177.786957,82.243309 
	C183.307388,82.442734 188.867828,81.447548 194.415237,81.015839 
	C198.345490,80.709984 202.284363,80.516106 206.215546,80.221016 
	C207.915375,80.093430 210.505859,80.415886 211.091934,79.504791 
	C212.002792,78.088806 211.697983,75.788284 211.629852,73.872597 
	C211.554367,71.749222 210.750412,69.588493 210.990814,67.528908 
	C211.733261,61.168495 209.607819,57.596725 203.412231,56.010120 
	C197.787689,54.569740 203.408783,51.994995 202.385239,49.084473 
	C200.765778,48.785469 198.611740,48.477047 196.507614,47.963959 
	C195.347076,47.680962 193.657288,47.313568 193.319031,46.513630 
	C192.940704,45.618855 193.551529,44.009678 194.209244,43.032776 
	C195.719482,40.789658 197.519592,38.741684 200.039856,35.555206 
	C200.039856,39.000427 200.039856,41.529015 200.039856,45.055367 
	C201.453079,44.023060 202.441757,43.010960 203.643539,42.501808 
	C204.932068,41.955894 206.421036,41.883110 207.822540,41.603844 
	C207.915802,42.800301 207.991150,43.998482 208.105850,45.192883 
	C208.401642,48.273144 208.714828,51.351734 210.254303,54.912251 
	C211.002991,53.795887 211.786041,52.700577 212.487488,51.555290 
	C212.911179,50.863514 213.208176,50.094158 213.562088,49.359653 
	C214.301270,49.872074 215.594177,50.299183 215.688431,50.910965 
	C216.239517,54.487873 216.785538,58.113014 216.720108,61.710728 
	C216.698318,62.908993 214.866867,64.074364 213.676483,65.473663 
	C215.826981,65.473663 218.107269,65.473663 220.548630,65.473663 
	C222.068420,67.524200 223.685104,69.705475 225.650894,71.943375 
	C226.000000,85.354225 226.000000,98.708458 226.000000,112.531342 
	C214.144806,113.377090 202.289612,113.754173 190.434418,114.131264 
	C190.596893,114.645401 190.759384,115.159538 190.921875,115.673676 
	C190.738892,117.114494 190.555908,118.555305 189.783142,119.826538 
	C187.600220,114.915367 183.662079,112.825272 179.433853,111.120384 
	C176.500076,109.937439 173.179886,109.371948 170.654526,107.629059 
	C168.771530,106.329498 166.536636,103.308701 166.898788,101.559761 
	C167.337738,99.440010 170.255737,96.434021 172.259277,96.306984 
	C177.711197,95.961304 183.246490,96.930702 188.667450,97.372299 
	C188.667450,95.697693 188.667450,93.065826 188.667450,89.785461 
	C183.095963,88.842781 177.547699,87.904022 171.999420,86.965271 
M198.407852,103.348984 
	C198.940506,103.894577 199.473160,104.440170 200.101196,105.681831 
	C201.364044,106.693031 202.480621,108.178894 203.918533,108.622063 
	C207.524658,109.733475 215.528137,105.800911 217.184631,102.451653 
	C219.154343,98.469101 217.660065,88.987541 214.671570,86.505692 
	C211.193039,83.616898 201.521072,82.816132 198.179337,85.905724 
	C196.560989,87.401955 196.520340,90.604607 195.808960,93.632393 
	C195.778854,94.030922 195.748749,94.429459 195.129913,95.065285 
	C194.575684,98.246384 194.366211,101.307968 198.407852,103.348984 
z"/>
<path fill="#FDFDFD" opacity="1.000000" stroke="none" 
	d="
M226.000000,160.625000 
	C222.935989,160.467667 219.871979,159.935318 216.752609,159.393341 
	C216.353119,163.482178 216.069656,166.383469 215.856522,168.564865 
	C214.005920,169.613663 212.672791,170.369186 211.339645,171.124710 
	C212.745117,171.887741 214.150589,172.650757 216.446625,173.897263 
	C215.229950,174.662308 214.232956,175.658035 213.059280,175.954681 
	C210.121964,176.697052 208.224472,177.346268 208.509613,181.412018 
	C208.932724,187.445145 205.349136,190.977676 199.132492,191.990509 
	C195.840454,192.526855 193.794296,193.454346 193.878571,197.563522 
	C194.000824,203.524567 187.597321,208.581909 181.646698,208.156967 
	C179.728180,208.019958 177.752289,208.686142 175.402237,208.991531 
	C174.715286,201.524506 180.546799,197.743057 184.393967,192.560944 
	C189.227875,186.049713 194.102264,181.775146 199.878830,181.365509 
	C200.113983,179.991867 200.337875,178.758911 200.533752,177.521500 
	C200.800812,175.834625 200.864166,174.088211 201.361252,172.473999 
	C201.733200,171.266174 202.392746,169.675690 203.375198,169.212875 
	C206.707260,167.643188 210.239716,166.498840 214.179718,165.008942 
	C213.086426,163.520065 212.536407,162.548447 211.779907,161.780182 
	C208.844589,158.799210 209.371201,155.814682 212.558487,153.889008 
	C217.316772,151.014206 216.910568,146.211899 217.361786,142.016602 
	C217.970581,136.356339 217.512970,130.581345 217.512970,125.205200 
	C220.112762,124.132721 222.687088,123.070740 225.630707,122.004379 
	C226.000000,128.021149 226.000000,134.042297 225.654510,140.587097 
	C223.047714,143.657089 221.792435,146.102509 226.000000,148.000000 
	C226.000000,148.444443 226.000000,148.888901 225.652939,149.722549 
	C223.537445,152.074295 221.769028,154.036835 219.965698,155.714828 
	C219.625320,155.107803 219.319855,154.785309 219.014404,154.462830 
	C218.832321,154.672638 218.650208,154.882431 218.468109,155.092224 
	C218.978531,155.395020 219.488953,155.697815 220.044403,156.320801 
	C222.059616,157.093979 224.029816,157.546997 226.000000,158.000000 
	C226.000000,158.750000 226.000000,159.500000 226.000000,160.625000 
M203.100220,181.269760 
	C203.310715,182.066467 203.521194,182.863174 203.731674,183.659882 
	C204.054108,183.536316 204.376541,183.412750 204.698959,183.289185 
	C204.276642,182.468140 203.854309,181.647095 203.100220,181.269760 
z"/>
<path fill="#FDFDFD" opacity="1.000000" stroke="none" 
	d="
M154.531342,1.000000 
	C154.505951,2.141266 154.011902,3.282531 153.494553,4.477617 
	C155.968857,6.029382 162.235245,0.646106 160.441498,8.819487 
	C165.317856,9.244241 169.851532,9.639147 174.733246,10.064368 
	C173.913925,17.704905 179.807877,17.978251 185.996613,18.367043 
	C184.461761,20.151516 183.349609,21.444532 181.853348,23.184137 
	C184.138794,23.810310 185.963364,24.292572 187.777496,24.811323 
	C190.612106,25.621876 192.932358,26.481945 192.568970,30.475895 
	C192.435410,31.943939 194.856964,33.644463 196.060272,35.171963 
	C193.885971,36.899124 191.671219,38.890781 189.183548,40.445850 
	C188.662521,40.771549 186.154099,39.224846 186.218262,38.986008 
	C187.408310,34.555721 184.904694,32.513920 181.641174,30.301249 
	C179.883728,29.109709 179.338501,26.260279 177.776505,24.601215 
	C176.853928,23.621302 175.029282,23.141956 173.582733,23.079914 
	C170.932800,22.966257 169.357117,22.471289 168.880280,19.308521 
	C168.097977,14.119365 163.259003,15.839853 160.894165,16.454714 
	C154.146240,18.209188 149.844360,15.783945 145.921310,10.694698 
	C144.926758,9.404480 142.391327,9.268845 140.533432,8.702746 
	C140.115616,8.575431 139.561340,8.984200 139.084671,8.948501 
	C131.960709,8.414952 124.839203,7.848195 117.697174,7.287700 
	C117.484543,5.603567 117.241669,3.679882 116.999397,1.378099 
	C129.354233,1.000000 141.708450,1.000000 154.531342,1.000000 
M126.493294,2.283743 
	C126.493294,2.283743 126.364616,2.537897 126.364616,2.537897 
	C126.364616,2.537897 126.645416,2.488394 126.493294,2.283743 
z"/>
<path fill="#FDFDFD" opacity="1.000000" stroke="none" 
	d="
M174.706955,209.109589 
	C173.707611,212.943375 167.878799,216.796906 164.274002,216.275116 
	C163.057419,216.098999 160.670776,216.408768 160.659592,216.602646 
	C160.283661,223.121887 154.677017,221.714722 150.992340,223.219376 
	C150.211411,223.538284 149.717575,224.560226 149.045731,225.629120 
	C139.979111,226.000000 130.958206,226.000000 121.468658,226.000000 
	C123.312325,223.180237 125.485184,220.223831 128.027405,217.629318 
	C128.731674,216.910568 130.710327,216.795624 131.802948,217.205994 
	C139.416031,220.065277 146.179962,216.507996 152.999390,214.346298 
	C158.981354,212.450058 164.674805,209.643616 170.469543,207.250000 
	C171.760666,207.893753 173.088013,208.555557 174.706955,209.109589 
M133.308197,223.580109 
	C133.706497,219.682632 133.706497,219.682632 128.585587,221.120529 
	C130.256989,222.245743 131.436188,223.039581 133.308197,223.580109 
z"/>
<path fill="#FFFFFF" opacity="1.000000" stroke="none" 
	d="
M226.000000,157.555832 
	C224.029816,157.546997 222.059616,157.093979 220.044708,156.320496 
	C220.000000,156.000000 220.000610,155.999390 220.000610,155.999390 
	C221.769028,154.036835 223.537445,152.074295 225.652939,150.055878 
	C226.000000,152.370560 226.000000,154.741104 226.000000,157.555832 
z"/>
<path fill="#FDFDFD" opacity="1.000000" stroke="none" 
	d="
M1.000000,155.428467 
	C2.082937,155.076019 3.165873,155.152039 5.698767,155.329834 
	C4.058171,157.684753 2.910352,159.332352 1.381267,160.989960 
	C1.000000,159.285645 1.000000,157.571289 1.000000,155.428467 
z"/>
<path fill="#FFFFFF" opacity="1.000000" stroke="none" 
	d="
M226.000000,147.562500 
	C221.792435,146.102509 223.047714,143.657089 225.654510,141.055389 
	C226.000000,143.041672 226.000000,145.083328 226.000000,147.562500 
z"/>
<path fill="#FDFDFD" opacity="1.000000" stroke="none" 
	d="
M151.945480,89.034454 
	C155.434464,89.377876 158.923431,89.721298 162.704468,90.408676 
	C154.120255,96.564980 155.628021,113.004219 167.452682,116.602425 
	C169.986908,117.373589 172.480804,118.296486 174.947876,119.265114 
	C180.075378,121.278282 182.069199,124.553360 180.501724,128.220444 
	C179.026230,131.672241 171.044235,134.699524 167.698135,133.217880 
	C164.307953,131.716721 160.827225,130.420029 157.284012,128.992630 
	C156.554794,139.032028 157.188736,139.825424 166.556183,141.055954 
	C167.703033,141.206589 168.846466,141.383224 169.991470,141.547821 
	C169.660492,142.450516 169.338699,144.132874 168.997147,144.136902 
	C165.006775,144.183792 161.013458,143.978226 156.116226,143.807907 
	C150.906494,146.737457 144.078186,142.194794 137.498764,144.836761 
	C137.697708,141.227264 137.849197,138.478577 138.301483,135.478378 
	C141.507706,141.908478 147.196625,140.740082 153.862137,140.238785 
	C150.274094,135.739304 147.151993,131.824142 143.972198,127.618042 
	C143.403748,127.147964 142.892990,126.968826 142.359192,126.425766 
	C139.253586,121.679932 136.171005,117.298035 133.160263,113.018250 
	C139.591370,104.807404 145.768433,96.920921 151.945480,89.034454 
z"/>
<path fill="#202020" opacity="1.000000" stroke="none" 
	d="
M25.991646,88.056801 
	C28.036888,87.981049 30.082130,87.905304 33.019341,87.835983 
	C37.237186,87.893028 40.581203,87.739426 43.885509,88.032944 
	C53.401299,88.878220 58.458981,93.905357 59.100876,102.647720 
	C59.569244,109.026665 57.945152,114.465218 52.429302,118.283653 
	C54.753029,123.907433 57.183418,129.177979 59.048454,134.641510 
	C59.683514,136.501877 58.895641,138.847977 58.757946,140.972137 
	C58.351826,140.892548 57.945705,140.812943 56.973953,141.085083 
	C56.408325,141.436844 56.335655,141.370926 56.335655,141.370926 
	C55.184494,141.099213 54.033337,140.827499 52.575607,140.287231 
	C51.576519,138.987000 50.884003,137.955307 50.191490,136.923630 
	C49.977882,136.082825 49.764278,135.242020 49.291054,133.816071 
	C47.769642,129.997421 46.642982,126.700470 45.171597,123.565315 
	C44.667210,122.490578 43.372421,121.209259 42.312897,121.083633 
	C39.427361,120.741501 36.474636,120.966042 33.002174,120.966042 
	C33.002174,127.428596 33.002174,133.214050 32.755913,139.118408 
	C32.323750,139.546829 32.137844,139.856354 31.647911,140.292938 
	C30.921782,140.334442 30.499680,140.248901 29.928459,139.901443 
	C29.159468,139.813583 28.539595,139.987656 27.919724,140.161713 
	C27.502542,140.246719 27.085361,140.331696 26.360332,139.810715 
	C26.032206,122.155426 26.011925,105.106117 25.991646,88.056801 
M33.172832,107.366806 
	C33.300133,109.465515 33.427433,111.564224 33.556755,113.696312 
	C40.379501,114.463364 46.318821,113.252724 49.703796,107.505028 
	C50.792839,105.655838 49.874729,101.430580 48.354340,99.473717 
	C44.554413,94.582901 38.759037,96.521690 33.174339,96.138496 
	C33.174339,99.870178 33.174339,103.141472 33.172832,107.366806 
z"/>
<path fill="#242424" opacity="1.000000" stroke="none" 
	d="
M170.341888,141.448593 
	C168.846466,141.383224 167.703033,141.206589 166.556183,141.055954 
	C157.188736,139.825424 156.554794,139.032028 157.284012,128.992630 
	C160.827225,130.420029 164.307953,131.716721 167.698135,133.217880 
	C171.044235,134.699524 179.026230,131.672241 180.501724,128.220444 
	C182.069199,124.553360 180.075378,121.278282 174.947876,119.265114 
	C172.480804,118.296486 169.986908,117.373589 167.452682,116.602425 
	C155.628021,113.004219 154.120255,96.564980 163.169739,90.450935 
	C163.342941,90.149231 163.743118,90.116493 164.161087,89.928909 
	C165.544922,89.162544 166.510788,88.583755 167.476654,88.004974 
	C167.687378,88.005295 167.898087,88.005608 168.353699,87.813095 
	C168.598602,87.620270 168.654846,87.757202 168.654846,87.757202 
	C169.493011,87.636299 170.331161,87.515404 171.584381,87.179886 
	C177.547699,87.904022 183.095963,88.842781 188.667450,89.785461 
	C188.667450,93.065826 188.667450,95.697693 188.667450,97.372299 
	C183.246490,96.930702 177.711197,95.961304 172.259277,96.306984 
	C170.255737,96.434021 167.337738,99.440010 166.898788,101.559761 
	C166.536636,103.308701 168.771530,106.329498 170.654526,107.629059 
	C173.179886,109.371948 176.500076,109.937439 179.433853,111.120384 
	C183.662079,112.825272 187.600220,114.915367 189.441437,119.877640 
	C189.803391,120.828415 189.917267,121.558517 190.085144,123.073784 
	C188.958755,127.850868 187.778366,131.842789 186.597992,135.834702 
	C186.079315,136.204010 185.560623,136.573303 184.594238,137.330917 
	C180.382553,138.990677 176.618561,140.262131 172.854568,141.533569 
	C172.133804,141.472168 171.413055,141.410767 170.341888,141.448593 
z"/>
<path fill="#242424" opacity="1.000000" stroke="none" 
	d="
M144.029892,127.908981 
	C147.151993,131.824142 150.274094,135.739304 153.862137,140.238785 
	C147.196625,140.740082 141.507706,141.908478 138.305969,135.045410 
	C137.964828,134.670609 137.919998,134.477249 137.513947,133.832214 
	C133.380432,128.309113 129.608139,123.237686 125.167084,117.267197 
	C125.167084,123.987137 125.167084,129.494720 125.167084,135.002304 
	C125.121338,136.071335 125.075592,137.140381 124.989273,138.977478 
	C122.632896,140.117584 120.317101,140.489639 118.001312,140.861679 
	C117.345055,139.790924 116.688797,138.720154 116.060135,137.298630 
	C116.087730,136.947861 116.272148,137.068314 116.537254,137.011749 
	C117.208542,136.637741 117.614723,136.320297 118.388336,136.041794 
	C120.868439,136.972778 122.144241,136.760315 122.028740,133.978363 
	C121.895546,130.770203 121.997780,127.552269 121.997780,123.603630 
	C121.025703,123.455566 119.523705,123.226799 118.016769,122.529541 
	C118.015083,114.374672 118.018318,106.688293 118.411285,98.912071 
	C119.200287,95.246513 119.599556,91.670792 120.409515,88.008789 
	C122.216003,87.947533 123.611816,87.972572 125.007622,87.997620 
	C125.011017,93.356728 125.014412,98.715836 125.023109,104.861893 
	C125.028412,106.511566 125.028412,107.374283 125.028412,109.344589 
	C126.283791,107.574371 126.886612,106.724335 127.489426,105.874298 
	C127.489433,105.874298 127.671127,105.702332 127.986877,105.417801 
	C129.762573,103.420006 131.222519,101.706734 132.682465,99.993462 
	C133.700623,98.559219 134.718781,97.124977 136.107422,95.166611 
	C139.006805,89.628006 143.047989,87.822411 148.509445,88.878548 
	C149.631119,89.095451 150.811478,89.008904 151.964798,89.062218 
	C151.964798,89.062218 151.988007,89.025749 151.966736,89.030098 
	C145.768433,96.920921 139.591370,104.807404 133.160263,113.018250 
	C136.171005,117.298035 139.253586,121.679932 142.039764,126.640221 
	C141.935928,128.404144 142.128464,129.589691 142.321014,130.775223 
	C142.890640,129.819809 143.460266,128.864395 144.029892,127.908981 
M139.823181,126.466476 
	C138.781021,126.053001 137.738876,125.639526 136.696732,125.226051 
	C136.602997,125.865631 136.509262,126.505203 136.415527,127.144783 
	C137.507996,127.144783 138.600479,127.144783 139.823181,126.466476 
M134.430374,119.702866 
	C134.703690,119.989174 134.977020,120.275490 135.250336,120.561798 
	C135.368881,120.448448 135.596741,120.242752 135.590225,120.235039 
	C135.335129,119.933060 135.058670,119.649117 134.430374,119.702866 
z"/>
<path fill="#FDFDFD" opacity="1.000000" stroke="none" 
	d="
M58.577293,141.340881 
	C58.895641,138.847977 59.683514,136.501877 59.048454,134.641510 
	C57.183418,129.177979 54.753029,123.907433 52.429302,118.283653 
	C57.945152,114.465218 59.569244,109.026665 59.100876,102.647720 
	C58.458981,93.905357 53.401299,88.878220 43.885509,88.032944 
	C40.581203,87.739426 37.237186,87.893028 33.452454,87.761490 
	C32.658978,84.314445 34.059490,82.916519 37.552433,82.924675 
	C41.189072,82.933182 44.823002,82.262444 48.467484,82.047905 
	C49.378521,81.994270 50.474461,82.338112 51.231304,82.864571 
	C55.409367,85.770859 57.576244,91.426414 63.665833,91.849770 
	C64.158089,91.883995 64.857018,93.821304 64.881302,94.887459 
	C65.002007,100.185394 65.169586,105.504845 64.795219,110.779427 
	C64.661209,112.667603 63.052860,114.451149 61.692574,117.114182 
	C64.428635,117.809563 66.719475,118.391792 69.560143,119.338486 
	C72.739983,120.135452 75.369995,120.567947 78.000000,121.000443 
	C78.291504,124.332848 78.583008,127.665260 78.548447,131.426849 
	C69.854210,129.540176 69.851067,129.540222 69.973137,136.790390 
	C69.978508,137.109253 70.137383,137.425522 70.224762,137.743011 
	C70.172691,138.219757 70.120613,138.696503 70.068542,139.173264 
	C76.379959,139.874817 82.691376,140.576385 89.002792,141.277939 
	C87.842560,142.182892 86.786896,143.661804 85.504364,143.895447 
	C79.282402,145.028961 73.459923,143.479935 66.810127,139.728180 
	C67.972244,141.745621 68.506935,142.673843 69.620224,144.606506 
	C65.562370,143.023056 61.355446,146.065033 58.577293,141.340881 
z"/>
<path fill="#212121" opacity="1.000000" stroke="none" 
	d="
M89.326759,141.177032 
	C82.691376,140.576385 76.379959,139.874817 70.068542,139.173264 
	C70.120613,138.696503 70.172691,138.219757 70.224762,137.743011 
	C70.137383,137.425522 69.978508,137.109253 69.973137,136.790390 
	C69.851067,129.540222 69.854210,129.540176 78.612473,131.819366 
	C79.722404,131.959595 80.442230,132.136505 81.499542,132.615616 
	C83.557945,132.664978 85.278870,132.412125 86.999786,132.159286 
	C88.472183,131.757050 89.944572,131.354828 91.971619,130.537323 
	C93.292824,128.080582 94.059395,126.039093 94.825958,123.997612 
	C94.886528,122.606773 94.947105,121.215927 95.010269,118.950645 
	C95.012856,108.184898 95.012856,98.293587 95.012856,88.858444 
	C97.996193,88.573654 100.504242,88.334236 103.108795,88.290527 
	C103.382355,88.731468 103.615395,88.898712 103.904411,88.987976 
	C103.959831,91.368729 104.015251,93.749474 103.592316,96.665359 
	C102.762627,97.715950 102.110725,98.228157 102.105125,98.747345 
	C102.022995,106.351990 101.969849,113.958488 102.093178,121.561569 
	C102.106483,122.381737 103.262749,123.183357 103.888840,123.993576 
	C103.558098,126.381340 103.227348,128.769104 102.602478,131.750061 
	C101.035263,134.023956 100.048729,136.095673 98.419151,137.289963 
	C96.203140,138.914032 93.495743,139.867615 90.999069,141.108734 
	C90.549622,141.097870 90.100174,141.086990 89.326759,141.177032 
z"/>
<path fill="#FDFDFD" opacity="1.000000" stroke="none" 
	d="
M25.115582,140.666550 
	C23.476040,141.392380 21.759544,142.773682 20.226360,142.593674 
	C19.333067,142.488800 18.112587,139.889893 18.097338,138.402298 
	C17.940819,123.134491 17.873871,107.862587 18.099041,92.596512 
	C18.149178,89.197350 19.440004,85.816483 20.159595,82.427193 
	C20.707426,82.315102 21.255259,82.203003 21.803089,82.090912 
	C22.531107,84.010193 23.259123,85.929482 24.240057,88.577682 
	C24.500519,102.796257 24.467041,116.286156 24.542810,129.775436 
	C24.563208,133.406769 24.915590,137.036224 25.115582,140.666550 
z"/>
<path fill="#FDFDFD" opacity="1.000000" stroke="none" 
	d="
M69.680458,88.937233 
	C64.438385,88.801056 64.127335,88.364891 66.680939,84.404266 
	C67.794418,84.965424 68.488823,85.265984 69.183228,85.566544 
	C69.312866,85.202911 69.442497,84.839279 69.572136,84.475647 
	C68.714958,84.316895 67.857788,84.158142 67.000610,83.999390 
	C68.117828,83.000267 69.173920,81.248222 70.364410,81.151573 
	C73.250755,80.917244 76.199661,81.453552 77.746277,81.572983 
	C80.476860,84.995590 82.608780,87.508720 84.538559,90.168510 
	C85.264595,91.169205 85.909416,92.503380 85.929695,93.696777 
	C86.056328,101.146996 86.091095,108.602097 85.958992,116.052078 
	C85.886650,120.132080 83.886604,121.840424 79.374741,119.580093 
	C78.934258,110.209160 78.965446,101.346054 78.869118,92.484337 
	C78.853416,91.040131 78.274055,89.602051 77.730141,88.054771 
	C77.505058,87.948402 77.022362,88.070534 76.599426,87.970001 
	C74.444801,87.935226 72.713112,88.000992 70.692528,88.046188 
	C70.294083,88.356041 70.184540,88.686462 69.992249,88.918304 
	C69.909500,88.819725 69.680458,88.937233 69.680458,88.937233 
z"/>
<path fill="#272727" opacity="1.000000" stroke="none" 
	d="
M77.955223,88.161148 
	C78.274055,89.602051 78.853416,91.040131 78.869118,92.484337 
	C78.965446,101.346054 78.934258,110.209160 79.009689,119.536819 
	C78.850357,120.239784 78.619682,120.470566 78.190918,120.847313 
	C75.369995,120.567947 72.739983,120.135452 69.943687,119.320938 
	C69.777397,118.938919 70.043449,118.794853 70.264786,118.775185 
	C70.357239,118.512482 70.228355,118.269440 70.099472,118.026405 
	C70.032661,117.858818 69.965843,117.691223 69.891617,116.866470 
	C69.836494,115.138145 69.788795,114.066956 69.741089,112.995773 
	C69.781189,105.286224 69.821281,97.576668 69.770920,89.402176 
	C69.680458,88.937233 69.909500,88.819725 70.207642,88.830505 
	C70.776138,88.651779 70.934685,88.393600 70.981430,88.066757 
	C72.713112,88.000992 74.444801,87.935226 76.666824,88.133682 
	C77.423187,88.318985 77.689209,88.240067 77.955223,88.161148 
z"/>
<path fill="#FDFDFD" opacity="1.000000" stroke="none" 
	d="
M33.002174,138.999496 
	C33.002174,133.214050 33.002174,127.428596 33.002174,120.966042 
	C36.474636,120.966042 39.427361,120.741501 42.312897,121.083633 
	C43.372421,121.209259 44.667210,122.490578 45.171597,123.565315 
	C46.642982,126.700470 47.769642,129.997421 49.038277,133.607574 
	C47.604614,134.340271 46.108509,134.551788 44.734394,135.080414 
	C41.108089,136.475464 39.191723,138.935318 40.755417,143.308212 
	C36.066116,143.715469 31.687082,145.843628 28.338772,140.972443 
	C29.056801,140.361282 29.567190,140.262329 30.077579,140.163361 
	C30.499680,140.248901 30.921782,140.334442 31.986706,140.319183 
	C32.753746,139.812088 32.877964,139.405792 33.002174,138.999496 
z"/>
<path fill="#FDFDFD" opacity="1.000000" stroke="none" 
	d="
M103.012291,88.094810 
	C100.504242,88.334236 97.996193,88.573654 95.012856,88.858444 
	C95.012856,98.293587 95.012856,108.184898 94.932312,118.538864 
	C94.234604,117.671936 93.134941,116.360245 93.084808,115.009605 
	C92.881317,109.526360 93.032021,104.030907 92.987846,98.540474 
	C92.961990,95.326775 93.390511,92.281387 90.611801,89.368332 
	C89.309563,88.003143 90.388885,84.366226 90.388885,81.026237 
	C95.187111,83.787247 101.593285,80.697540 103.711174,87.599228 
	C103.332726,87.964355 103.172508,88.029587 103.012291,88.094810 
z"/>
<path fill="#FDFDFD" opacity="1.000000" stroke="none" 
	d="
M125.541031,134.989563 
	C125.167084,129.494720 125.167084,123.987137 125.167084,117.267197 
	C129.608139,123.237686 133.380432,128.309113 137.266296,133.666916 
	C136.156738,135.087051 134.933578,136.220810 133.388763,137.652740 
	C132.291275,132.110992 131.779373,131.982056 125.541031,134.989563 
z"/>
<path fill="#060606" opacity="1.000000" stroke="none" 
	d="
M25.260830,140.551178 
	C24.915590,137.036224 24.563208,133.406769 24.542810,129.775436 
	C24.467041,116.286156 24.500519,102.796257 24.360798,88.885429 
	C24.610472,88.301605 24.992319,88.138947 25.682907,88.016541 
	C26.011925,105.106117 26.032206,122.155426 26.060162,139.683929 
	C25.895344,140.370682 25.674757,140.461578 25.260830,140.551178 
z"/>
<path fill="#FDFDFD" opacity="1.000000" stroke="none" 
	d="
M115.977615,136.945435 
	C115.245026,135.359955 114.098267,133.782196 114.082184,132.192993 
	C113.940758,118.224281 114.009819,104.253540 113.992912,90.283417 
	C113.989777,87.689827 113.960960,85.197411 117.730011,87.612732 
	C117.528503,87.939682 117.277359,88.012650 116.742744,88.055763 
	C116.391853,88.356537 116.324440,88.687164 116.182655,89.479965 
	C116.162903,105.650864 116.217529,121.359589 116.272148,137.068314 
	C116.272148,137.068314 116.087730,136.947861 115.977615,136.945435 
z"/>
<path fill="#FDFDFD" opacity="1.000000" stroke="none" 
	d="
M151.933472,88.723541 
	C150.811478,89.008904 149.631119,89.095451 148.509445,88.878548 
	C143.047989,87.822411 139.006805,89.628006 136.190521,94.820679 
	C133.803955,94.054581 130.173660,97.921890 129.299408,92.930267 
	C134.912048,91.918541 137.427948,83.915001 145.598312,87.870537 
	C144.278427,84.860321 143.688019,83.513794 142.786652,81.458069 
	C145.267609,81.754547 147.213318,81.987068 148.646286,82.158318 
	C149.879547,84.516815 150.890839,86.450836 151.933472,88.723541 
z"/>
<path fill="#FDFDFD" opacity="1.000000" stroke="none" 
	d="
M91.006195,141.484482 
	C93.495743,139.867615 96.203140,138.914032 98.419151,137.289963 
	C100.048729,136.095673 101.035263,134.023956 102.585823,132.151810 
	C103.482430,133.698624 104.101555,135.436859 104.873978,137.605484 
	C103.287506,137.605484 102.284737,137.605484 101.281967,137.605484 
	C100.810577,138.180023 100.339188,138.754562 99.867798,139.329102 
	C100.808235,139.563705 101.895386,139.581543 102.649284,140.091782 
	C103.459435,140.640091 103.956696,141.650696 104.590485,142.459595 
	C103.628471,142.764877 102.684837,143.164505 101.700699,143.356308 
	C99.486809,143.787750 97.196716,143.920120 95.041489,144.537033 
	C92.443718,145.280609 91.239700,144.434372 91.006195,141.484482 
z"/>
<path fill="#171717" opacity="1.000000" stroke="none" 
	d="
M103.967155,123.531097 
	C103.262749,123.183357 102.106483,122.381737 102.093178,121.561569 
	C101.969849,113.958488 102.022995,106.351990 102.105125,98.747345 
	C102.110725,98.228157 102.762627,97.715950 103.503311,97.103470 
	C103.943611,105.693840 103.994537,114.381233 103.967155,123.531097 
z"/>
<path fill="#FDFDFD" opacity="1.000000" stroke="none" 
	d="
M125.363403,87.958046 
	C123.611816,87.972572 122.216003,87.947533 120.237045,87.924217 
	C119.284538,87.853096 118.915169,87.780258 118.545807,87.707413 
	C118.132263,86.116608 117.718727,84.525795 117.227859,82.637512 
	C119.191307,81.907509 121.066566,78.724167 122.576462,83.255310 
	C122.708656,83.652023 124.425133,83.363335 125.263466,83.723839 
	C126.216850,84.133827 127.010315,84.915649 127.873299,85.535835 
	C127.155266,86.330048 126.437233,87.124260 125.363403,87.958046 
z"/>
<path fill="#FDFDFD" opacity="1.000000" stroke="none" 
	d="
M186.951965,135.976532 
	C187.778366,131.842789 188.958755,127.850868 190.194550,123.427368 
	C195.231201,125.370941 192.171570,129.367264 192.407547,132.809631 
	C192.734665,137.581253 190.456284,137.264877 186.951965,135.976532 
z"/>
<path fill="#FDFDFD" opacity="1.000000" stroke="none" 
	d="
M172.997116,141.894333 
	C176.618561,140.262131 180.382553,138.990677 184.466400,137.537460 
	C186.217422,141.755508 182.679932,143.106293 179.938843,143.800461 
	C177.931641,144.308792 175.424164,142.841705 172.997116,141.894333 
z"/>
<path fill="#FDFDFD" opacity="1.000000" stroke="none" 
	d="
M118.041283,141.196289 
	C120.317101,140.489639 122.632896,140.117584 125.072647,139.371429 
	C127.831978,138.923004 129.541473,140.075211 128.682495,142.772736 
	C128.455704,143.484955 125.972992,143.903061 124.615120,143.735504 
	C122.346863,143.455612 119.134171,145.481201 118.041283,141.196289 
z"/>
<path fill="#232323" opacity="1.000000" stroke="none" 
	d="
M118.535858,87.692261 
	C118.915169,87.780258 119.284538,87.853096 119.826370,88.010513 
	C119.599556,91.670792 119.200287,95.246513 118.404823,98.465134 
	C117.672768,95.073517 117.336906,92.038994 117.002563,88.774628 
	C117.004089,88.544785 117.026215,88.085625 117.026215,88.085625 
	C117.277359,88.012650 117.528503,87.939682 118.163116,87.781494 
	C118.546577,87.696274 118.525909,87.677116 118.535858,87.692261 
z"/>
<path fill="#FDFDFD" opacity="1.000000" stroke="none" 
	d="
M86.952766,131.799179 
	C85.278870,132.412125 83.557945,132.664978 81.869003,132.581223 
	C82.737907,126.811203 84.928787,129.789658 86.952766,131.799179 
z"/>
<path fill="#FDFDFD" opacity="1.000000" stroke="none" 
	d="
M94.461418,124.008476 
	C94.059395,126.039093 93.292824,128.080582 92.229591,130.241135 
	C89.239464,127.081223 91.931961,125.640305 94.461418,124.008476 
z"/>
<path fill="#FDFDFD" opacity="1.000000" stroke="none" 
	d="
M49.890316,137.145004 
	C50.884003,137.955307 51.576519,138.987000 52.209496,140.340897 
	C52.058437,141.470993 51.966919,142.278854 51.875397,143.086731 
	C51.320633,143.180679 50.765869,143.274628 50.211105,143.368591 
	C50.003784,141.367844 49.796467,139.367111 49.890316,137.145004 
z"/>
<path fill="#FDFDFD" opacity="1.000000" stroke="none" 
	d="
M132.293365,99.994858 
	C131.222519,101.706734 129.762573,103.420006 128.051865,105.310928 
	C125.758186,101.109787 128.473068,100.285446 132.293365,99.994858 
z"/>
<path fill="#FDFDFD" opacity="1.000000" stroke="none" 
	d="
M103.231903,5.194830 
	C104.651527,5.450789 105.713394,5.812912 107.416382,6.393677 
	C102.946922,8.540715 102.868797,8.508741 103.231903,5.194830 
z"/>
<path fill="#FDFDFD" opacity="1.000000" stroke="none" 
	d="
M7.109285,107.513779 
	C7.944092,108.346809 8.708856,109.543297 9.473619,110.739777 
	C8.834117,110.986519 8.194614,111.233261 7.555112,111.479996 
	C7.383155,110.279076 7.211198,109.078156 7.109285,107.513779 
z"/>
<path fill="#FDFDFD" opacity="1.000000" stroke="none" 
	d="
M69.397736,113.006058 
	C69.788795,114.066956 69.836494,115.138145 69.815552,116.606750 
	C68.874596,116.219887 68.002281,115.435600 67.129967,114.651314 
	C67.771439,114.106323 68.412910,113.561333 69.397736,113.006058 
z"/>
<path fill="#FDFDFD" opacity="1.000000" stroke="none" 
	d="
M170.001373,201.998169 
	C170.936218,202.405899 171.871048,202.813629 172.805893,203.221359 
	C172.501663,203.684082 172.197433,204.146820 171.893204,204.609543 
	C171.286102,203.968216 170.679016,203.326889 170.035965,202.342773 
	C170.000000,202.000000 170.001373,201.998169 170.001373,201.998169 
z"/>
<path fill="#FDFDFD" opacity="1.000000" stroke="none" 
	d="
M167.154175,87.750366 
	C166.510788,88.583755 165.544922,89.162544 164.287750,89.773163 
	C164.941528,89.035255 165.886627,88.265511 167.154175,87.750366 
z"/>
<path fill="#FDFDFD" opacity="1.000000" stroke="none" 
	d="
M127.147377,105.630615 
	C126.886612,106.724335 126.283791,107.574371 125.028412,109.344589 
	C125.028412,107.374283 125.028412,106.511566 125.103699,105.323166 
	C125.721092,105.127304 126.263214,105.257126 127.147377,105.630615 
z"/>
<path fill="#060606" opacity="1.000000" stroke="none" 
	d="
M29.928459,139.901428 
	C29.567190,140.262329 29.056801,140.361282 28.323633,140.602661 
	C28.100855,140.745071 28.090801,140.428406 28.005260,140.295059 
	C28.539595,139.987656 29.159468,139.813583 29.928459,139.901428 
z"/>
<path fill="#FDFDFD" opacity="1.000000" stroke="none" 
	d="
M168.738083,87.370567 
	C168.654846,87.757202 168.598602,87.620270 168.618530,87.640579 
	C168.277939,87.063850 167.917450,86.466805 167.556961,85.869751 
	C167.828918,85.825958 168.285156,85.668457 168.340607,85.758286 
	C168.567383,86.125763 168.671829,86.568748 168.738083,87.370567 
z"/>
<path fill="#FDFDFD" opacity="1.000000" stroke="none" 
	d="
M162.608154,82.532791 
	C163.058945,82.649002 163.335312,82.932816 163.590286,83.234680 
	C163.596832,83.242439 163.369125,83.448090 163.250671,83.561447 
	C162.977417,83.275223 162.704147,82.988991 162.608154,82.532791 
z"/>
<path fill="#FDFDFD" opacity="1.000000" stroke="none" 
	d="
M195.608032,178.533173 
	C196.058624,178.649384 196.334885,178.933105 196.589783,179.234894 
	C196.596329,179.242645 196.368713,179.448181 196.250305,179.561493 
	C195.977173,179.275345 195.704025,178.989212 195.608032,178.533173 
z"/>
<path fill="#FDFDFD" opacity="1.000000" stroke="none" 
	d="
M40.500572,40.528137 
	C40.089756,40.601418 39.836430,40.520164 39.583099,40.438911 
	C39.866413,40.161968 40.149727,39.885017 40.433037,39.608067 
	C40.508045,39.863247 40.583050,40.118427 40.500572,40.528137 
z"/>
<path fill="#FDFDFD" opacity="1.000000" stroke="none" 
	d="
M140.258514,83.644852 
	C140.431381,83.956955 140.390244,84.310150 140.349106,84.663345 
	C140.103745,84.575523 139.858383,84.487701 139.613022,84.399879 
	C139.756851,84.161896 139.900665,83.923920 140.258514,83.644852 
z"/>
<path fill="#FDFDFD" opacity="1.000000" stroke="none" 
	d="
M140.722015,81.601669 
	C140.849182,81.441116 141.069168,81.417877 141.289169,81.394638 
	C141.131073,81.509422 140.972961,81.624207 140.722015,81.601669 
z"/>
<path fill="#FDFDFD" opacity="1.000000" stroke="none" 
	d="
M169.999084,202.000702 
	C169.876587,201.858292 169.755020,201.715179 169.633438,201.572083 
	C169.719742,201.621460 169.806061,201.670822 169.946869,201.859192 
	C170.001373,201.998169 170.000000,202.000000 169.999084,202.000702 
z"/>
<path fill="#FDFDFD" opacity="1.000000" stroke="none" 
	d="
M153.448883,210.533218 
	C153.415039,210.476852 153.482742,210.589584 153.448883,210.533218 
z"/>
<path fill="#FDFDFD" opacity="1.000000" stroke="none" 
	d="
M21.466824,169.448700 
	C21.523361,169.414734 21.410288,169.482651 21.466824,169.448700 
z"/>
<path fill="#FDFDFD" opacity="1.000000" stroke="none" 
	d="
M131.466919,90.449005 
	C131.523148,90.415276 131.410690,90.482742 131.466919,90.449005 
z"/>
<path fill="#FDFDFD" opacity="1.000000" stroke="none" 
	d="
M199.448746,33.533012 
	C199.415024,33.476849 199.482468,33.589172 199.448746,33.533012 
z"/>
<path fill="#171717" opacity="1.000000" stroke="none" 
	d="
M103.108795,88.290527 
	C103.172508,88.029587 103.332726,87.964355 103.748772,87.942581 
	C104.025436,88.156784 104.046288,88.327530 103.985779,88.743126 
	C103.615395,88.898712 103.382355,88.731468 103.108795,88.290527 
z"/>
<path fill="#020202" opacity="1.000000" stroke="none" 
	d="
M70.057236,118.286301 
	C70.228355,118.269440 70.357239,118.512482 70.366257,118.887375 
	C70.169273,118.861557 70.092140,118.703873 70.057236,118.286301 
z"/>
<path fill="#FDFDFD" opacity="1.000000" stroke="none" 
	d="
M91.467041,121.449371 
	C91.523178,121.415695 91.410912,121.483047 91.467041,121.449371 
z"/>
<path fill="#FDFDFD" opacity="1.000000" stroke="none" 
	d="
M130.467072,136.449173 
	C130.523117,136.415588 130.411011,136.482758 130.467072,136.449173 
z"/>
<path fill="#FDFDFD" opacity="1.000000" stroke="none" 
	d="
M56.307346,141.601349 
	C56.335655,141.370926 56.408325,141.436844 56.440498,141.402542 
	C56.408127,141.522751 56.343582,141.677261 56.307346,141.601349 
z"/>
<path fill="#FDFDFD" opacity="1.000000" stroke="none" 
	d="
M115.550629,143.467224 
	C115.584099,143.523132 115.517166,143.411301 115.550629,143.467224 
z"/>
<path fill="#FFFFFF" opacity="1.000000" stroke="none" 
	d="
M25.000187,178.000305 
	C24.697643,178.511063 24.394913,179.021515 24.092186,179.531967 
	C23.882387,179.349976 23.672588,179.167984 23.462791,178.985992 
	C23.785400,178.680618 24.108007,178.375229 24.715118,178.034622 
	C24.999619,177.999390 25.000000,178.000000 25.000187,178.000305 
z"/>
<path fill="#FFFFFF" opacity="1.000000" stroke="none" 
	d="
M20.007420,47.995148 
	C20.260080,48.340824 20.506731,48.691074 20.731609,49.054790 
	C20.737360,49.064087 20.504168,49.221119 20.382412,49.309250 
	C20.262159,49.037300 20.141907,48.765350 20.002157,48.255543 
	C19.982660,48.017685 19.998558,48.001484 20.007420,47.995148 
z"/>
<path fill="#FFFFFF" opacity="1.000000" stroke="none" 
	d="
M57.000313,209.000305 
	C56.907997,209.036255 56.815369,209.071915 56.860992,209.053467 
	C56.999237,208.999390 57.000000,209.000000 57.000313,209.000305 
z"/>
<path fill="#FFFFFF" opacity="1.000000" stroke="none" 
	d="
M58.450150,211.532928 
	C58.417122,211.477448 58.483177,211.588394 58.450150,211.532928 
z"/>
<path fill="#FFFFFF" opacity="1.000000" stroke="none" 
	d="
M11.999819,166.999695 
	C12.092181,166.963531 12.184724,166.927689 12.138865,166.946198 
	C12.000463,167.000534 12.000000,167.000000 11.999819,166.999695 
z"/>
<path fill="#FDFDFD" opacity="1.000000" stroke="none" 
	d="
M10.997519,61.001720 
	C10.746469,60.653301 10.496032,60.304333 10.265455,59.942699 
	C10.261425,59.936375 10.496450,59.777626 10.619926,59.689999 
	C10.738926,59.964741 10.857927,60.239483 10.991089,60.754433 
	C11.005249,60.994637 11.000083,60.999928 10.997519,61.001720 
z"/>
<path fill="#FDFDFD" opacity="1.000000" stroke="none" 
	d="
M41.994049,22.004606 
	C41.868774,21.862295 41.749374,21.715357 41.629974,21.568420 
	C41.717827,21.616587 41.805676,21.664751 41.951317,21.850565 
	C42.009102,21.988214 41.999928,21.999981 41.994049,22.004606 
z"/>
<path fill="#FDFDFD" opacity="1.000000" stroke="none" 
	d="
M19.996004,42.003113 
	C19.871775,41.860756 19.751520,41.715282 19.631268,41.569813 
	C19.718536,41.618443 19.805805,41.667068 19.949612,41.853874 
	C20.006145,41.992050 19.999979,42.000000 19.996004,42.003113 
z"/>
<path fill="#FDFDFD" opacity="1.000000" stroke="none" 
	d="
M172.550934,216.467117 
	C172.584518,216.523148 172.517349,216.411087 172.550934,216.467117 
z"/>
<path fill="#FDFDFD" opacity="1.000000" stroke="none" 
	d="
M175.449188,215.532990 
	C175.415634,215.476944 175.482727,215.589050 175.449188,215.532990 
z"/>
<path fill="#FDFDFD" opacity="1.000000" stroke="none" 
	d="
M158.449097,223.533035 
	C158.415283,223.476776 158.482910,223.589294 158.449097,223.533035 
z"/>
<path fill="#FCF6AF" opacity="1.000000" stroke="none" 
	d="
M195.765381,93.034676 
	C196.520340,90.604607 196.560989,87.401955 198.179337,85.905724 
	C201.521072,82.816132 211.193039,83.616898 214.671570,86.505692 
	C217.660065,88.987541 219.154343,98.469101 217.184631,102.451653 
	C215.528137,105.800911 207.524658,109.733475 203.918533,108.622063 
	C202.480621,108.178894 201.364044,106.693031 200.428711,105.313339 
	C201.507095,104.966423 202.257965,104.988007 203.290833,105.153870 
	C204.374634,105.509140 205.176407,105.720131 206.357880,105.963028 
	C208.556122,105.037811 210.374695,104.080704 212.549957,103.040344 
	C216.954224,99.350800 215.365829,94.386627 214.010452,90.973022 
	C213.045334,88.542290 208.161758,87.667381 204.654938,86.075516 
	C201.443771,88.380157 198.604584,90.707420 195.765381,93.034676 
z"/>
<path fill="#EDE357" opacity="1.000000" stroke="none" 
	d="
M195.787170,93.333534 
	C198.604584,90.707420 201.443771,88.380157 204.647491,86.435211 
	C205.009262,87.541298 205.006485,88.265060 204.659241,89.042252 
	C200.366806,90.288155 203.649414,93.084541 202.887924,95.230423 
	C202.585022,95.750099 202.318405,95.935448 201.709518,95.778992 
	C201.025879,94.452118 200.605743,93.353775 199.632050,90.808296 
	C198.423920,94.118568 197.712494,96.067902 196.741409,97.782433 
	C196.227402,96.641075 195.973022,95.734528 195.718643,94.827988 
	C195.748749,94.429459 195.778854,94.030922 195.787170,93.333534 
z"/>
<path fill="#EDE357" opacity="1.000000" stroke="none" 
	d="
M203.008820,105.009598 
	C202.257965,104.988007 201.507095,104.966423 200.381027,104.965302 
	C199.473160,104.440170 198.940506,103.894577 198.232544,102.915916 
	C198.102234,102.285973 198.147217,102.089104 198.541260,101.905838 
	C199.862915,100.591965 200.835526,99.264481 201.912018,98.252434 
	C202.676361,99.407776 203.336823,100.247681 203.854233,101.399712 
	C203.477066,102.811089 203.242950,103.910347 203.008820,105.009598 
z"/>
<path fill="#FCF6AF" opacity="1.000000" stroke="none" 
	d="
M198.192215,101.892227 
	C198.147217,102.089104 198.102234,102.285973 197.981018,102.776581 
	C194.366211,101.307968 194.575684,98.246384 195.424286,94.946640 
	C195.973022,95.734528 196.227402,96.641075 196.773926,98.120529 
	C197.441452,99.759705 197.816833,100.825966 198.192215,101.892227 
z"/>
<path fill="#FFFFFF" opacity="1.000000" stroke="none" 
	d="
M203.266113,181.047913 
	C203.854309,181.647095 204.276642,182.468140 204.698959,183.289185 
	C204.376541,183.412750 204.054108,183.536316 203.731674,183.659882 
	C203.521194,182.863174 203.310715,182.066467 203.266113,181.047913 
z"/>
<path fill="#FFFFFF" opacity="1.000000" stroke="none" 
	d="
M219.999695,156.000305 
	C219.488953,155.697815 218.978531,155.395020 218.468109,155.092224 
	C218.650208,154.882431 218.832321,154.672638 219.014404,154.462830 
	C219.319855,154.785309 219.625320,155.107803 219.965698,155.714844 
	C220.000610,155.999390 220.000000,156.000000 219.999695,156.000305 
z"/>
<path fill="#C6C6C6" opacity="1.000000" stroke="none" 
	d="
M126.569351,2.386069 
	C126.645416,2.488394 126.364616,2.537897 126.364616,2.537897 
	C126.364616,2.537897 126.493294,2.283743 126.569351,2.386069 
z"/>
<path fill="#FFFFFF" opacity="1.000000" stroke="none" 
	d="
M132.961792,223.706772 
	C131.436188,223.039581 130.256989,222.245743 128.585587,221.120529 
	C133.706497,219.682632 133.706497,219.682632 132.961792,223.706772 
z"/>
<path fill="#232323" opacity="1.000000" stroke="none" 
	d="
M143.972198,127.618042 
	C143.460266,128.864395 142.890640,129.819809 142.321014,130.775223 
	C142.128464,129.589691 141.935928,128.404144 142.062805,127.004150 
	C142.892990,126.968826 143.403748,127.147964 143.972198,127.618042 
z"/>
<path fill="#EEEEEE" opacity="1.000000" stroke="none" 
	d="
M33.173584,106.889786 
	C33.174339,103.141472 33.174339,99.870178 33.174339,96.138496 
	C38.759037,96.521690 44.554413,94.582901 48.354340,99.473717 
	C49.874729,101.430580 50.792839,105.655838 49.703796,107.505028 
	C46.318821,113.252724 40.379501,114.463364 33.556755,113.696312 
	C33.427433,111.564224 33.300133,109.465515 33.173584,106.889786 
z"/>
<path fill="#060606" opacity="1.000000" stroke="none" 
	d="
M32.755917,139.118408 
	C32.877964,139.405792 32.753746,139.812088 32.290737,140.192139 
	C32.137844,139.856354 32.323750,139.546829 32.755917,139.118408 
z"/>
<path fill="#171717" opacity="1.000000" stroke="none" 
	d="
M117.001045,89.004471 
	C117.336906,92.038994 117.672768,95.073517 118.015091,98.554977 
	C118.018318,106.688293 118.015083,114.374672 118.010193,122.992920 
	C118.012665,127.950806 118.016792,131.976822 118.020912,136.002853 
	C117.614723,136.320297 117.208542,136.637741 116.537254,137.011749 
	C116.217529,121.359589 116.162903,105.650864 116.368576,89.477631 
	C116.628868,89.013115 117.001045,89.004471 117.001045,89.004471 
z"/>
<path fill="#232323" opacity="1.000000" stroke="none" 
	d="
M118.388336,136.041794 
	C118.016792,131.976822 118.012665,127.950806 118.015121,123.461411 
	C119.523705,123.226799 121.025703,123.455566 121.997780,123.603630 
	C121.997780,127.552269 121.895546,130.770203 122.028740,133.978363 
	C122.144241,136.760315 120.868439,136.972778 118.388336,136.041794 
z"/>
<path fill="#232323" opacity="1.000000" stroke="none" 
	d="
M139.758057,126.805634 
	C138.600479,127.144783 137.507996,127.144783 136.415527,127.144783 
	C136.509262,126.505203 136.602997,125.865631 136.696732,125.226051 
	C137.738876,125.639526 138.781021,126.053001 139.758057,126.805634 
z"/>
<path fill="#232323" opacity="1.000000" stroke="none" 
	d="
M134.607697,119.532837 
	C135.058670,119.649117 135.335129,119.933060 135.590225,120.235039 
	C135.596741,120.242752 135.368881,120.448448 135.250336,120.561798 
	C134.977020,120.275490 134.703690,119.989174 134.607697,119.532837 
z"/>
<path fill="#FFFFFF" opacity="1.000000" stroke="none" 
	d="
M67.000305,83.999695 
	C67.857788,84.158142 68.714958,84.316895 69.572136,84.475647 
	C69.442497,84.839279 69.312866,85.202911 69.183228,85.566544 
	C68.488823,85.265984 67.794418,84.965424 67.049698,84.332733 
	C66.999390,84.000610 67.000000,84.000000 67.000305,83.999695 
z"/>
<path fill="#020202" opacity="1.000000" stroke="none" 
	d="
M70.692528,88.046188 
	C70.934685,88.393600 70.776138,88.651779 70.290390,88.929092 
	C70.184540,88.686462 70.294083,88.356041 70.692528,88.046188 
z"/>
<path fill="#020202" opacity="1.000000" stroke="none" 
	d="
M77.730141,88.054779 
	C77.689209,88.240067 77.423187,88.318985 77.089767,88.234222 
	C77.022362,88.070534 77.505058,87.948402 77.730141,88.054779 
z"/>
<path fill="#242424" opacity="1.000000" stroke="none" 
	d="
M117.002563,88.774628 
	C117.001045,89.004471 116.628868,89.013115 116.442947,89.015457 
	C116.324440,88.687164 116.391853,88.356537 116.742744,88.055763 
	C117.026215,88.085625 117.004089,88.544785 117.002563,88.774628 
z"/>
<path fill="#EFE741" opacity="1.000000" stroke="none" 
	d="
M205.003708,88.988831 
	C205.006485,88.265060 205.009262,87.541298 205.019470,86.457840 
	C208.161758,87.667381 213.045334,88.542290 214.010452,90.973022 
	C215.365829,94.386627 216.954224,99.350800 212.163940,102.965088 
	C211.163208,102.934456 210.905212,102.895821 210.710175,102.477554 
	C210.799362,100.800850 210.825592,99.503784 210.893448,97.870300 
	C210.925720,97.308075 210.916351,97.082275 210.914551,96.474960 
	C210.911194,95.078232 210.900253,94.063011 210.789749,92.724762 
	C208.794693,91.264091 206.899200,90.126457 205.003708,88.988831 
z"/>
<path fill="#EFE741" opacity="1.000000" stroke="none" 
	d="
M203.290833,105.153870 
	C203.242950,103.910347 203.477066,102.811089 204.110321,101.170868 
	C208.257431,96.626846 208.635361,101.511040 209.948700,102.889450 
	C208.352020,103.931099 207.165100,104.931114 205.978180,105.931137 
	C205.176407,105.720131 204.374634,105.509140 203.290833,105.153870 
z"/>
<path fill="#EDE357" opacity="1.000000" stroke="none" 
	d="
M206.357880,105.963028 
	C207.165100,104.931114 208.352020,103.931099 210.019135,102.881851 
	C210.499329,102.832634 210.647202,102.857193 210.647202,102.857193 
	C210.905212,102.895821 211.163208,102.934456 211.807236,103.048340 
	C210.374695,104.080704 208.556122,105.037811 206.357880,105.963028 
z"/>
<path fill="#F9F3A9" opacity="1.000000" stroke="none" 
	d="
M210.710175,102.477554 
	C210.647202,102.857193 210.499329,102.832634 210.428894,102.840233 
	C208.635361,101.511040 208.257431,96.626846 204.253372,100.858734 
	C203.336823,100.247681 202.676361,99.407776 201.950043,97.931747 
	C201.913803,96.866249 201.943405,96.436882 201.973022,96.007507 
	C202.318405,95.935448 202.585022,95.750099 203.268173,95.218323 
	C206.138748,94.339371 208.514038,93.693573 210.889313,93.047791 
	C210.900253,94.063011 210.911194,95.078232 210.750671,96.610756 
	C210.519135,97.256134 210.377350,97.419235 210.414413,97.505653 
	C210.521683,97.755859 210.700867,97.975243 210.851807,98.206726 
	C210.825592,99.503784 210.799362,100.800850 210.710175,102.477554 
z"/>
<path fill="#FCF690" opacity="1.000000" stroke="none" 
	d="
M210.789764,92.724754 
	C208.514038,93.693573 206.138748,94.339371 203.383209,94.997269 
	C203.649414,93.084541 200.366806,90.288155 204.659241,89.042252 
	C206.899200,90.126457 208.794693,91.264091 210.789764,92.724754 
z"/>
<path fill="#EEE819" opacity="1.000000" stroke="none" 
	d="
M201.709518,95.778992 
	C201.943405,96.436882 201.913803,96.866249 201.846161,97.616310 
	C200.835526,99.264481 199.862915,100.591965 198.541260,101.905838 
	C197.816833,100.825966 197.441452,99.759705 197.033569,98.355339 
	C197.712494,96.067902 198.423920,94.118568 199.632050,90.808296 
	C200.605743,93.353775 201.025879,94.452118 201.709518,95.778992 
z"/>
<path fill="#EDE357" opacity="1.000000" stroke="none" 
	d="
M210.893448,97.870300 
	C210.700867,97.975243 210.521683,97.755859 210.414413,97.505653 
	C210.377350,97.419235 210.519135,97.256134 210.743103,96.992264 
	C210.916351,97.082275 210.925720,97.308075 210.893448,97.870300 
z"/>
</svg>